# xmcd
#
# Track frame offsets: 
#        150
#        12797
#        25783
#        37833
#        50278
#        62796
#        72871
#        84531
#        97521
#        111545
#        125101
#        137382
#        149868
#        161365
#        174194
#        188156
#        201599
#        211801
#        222456
#        234157
#        245999
#        257690
#        269332
#        282765
#        293655
#
# Disc length: 4081 seconds
#
# Revision: 0
# Processed by: cddbd v1.5.1PL2 Copyright (c) Steve Scherf et al.
# Submitted via: ExactAudioCopy v0.95b1
#
DISCID=6e0fef19
DTITLE=Various Artist - Road To Nashville -History Of Country Music 1926-53 C
DTITLE=D3
DYEAR=1900
DGENRE=Country
TTITLE0=Filipino Baby - Cowboy Copas
TTITLE1=I'm Movin On - Hank Snow
TTITLE2=Walking The Floor - Ernest Tubb
TTITLE3=Wild Side Of Life - The Hank Thompson
TTITLE4=Slippin' Around - Floyd Tillman
TTITLE5=Honky Tonk Blues - Hank Williams
TTITLE6=Juke Joint Mama - Jimmy Swan
TTITLE7=My Cold Cold Heart Is Melted Now - Kitty Wells
TTITLE8=Blue Moon Of Kentucky - Bill Monroe
TTITLE9=I'm A Man Of Constant Sorrow - Stanley Brothers
TTITLE10=Foggy Mountain Breakdown - Flatt and Scruggs
TTITLE11=I Love You Because - Leon Payne
TTITLE12=Hey Joe - Carl Smith
TTITLE13=Room Full Of Roses - George Morgan
TTITLE14=I'll Sail My Ship Alone - Moon Mullican
TTITLE15=If You've Got The Money - Lefty Frizzell
TTITLE16=Railroadin' - Speedy West and Jimmy Bryant
TTITLE17=Guitar Boogie - Arthur Guitar Boogie Smith
TTITLE18=Shot Gun Boogie - The Tennessee Ernie
TTITLE19=Hangman's Boogie - Cowboy Copas
TTITLE20=Hot Rod Race - Jimmy Dolan
TTITLE21=Bandera Waltz - Slim Whitman
TTITLE22=Have I Told You Lately That I Love You - Red Foley
TTITLE23=Cattle Call - Eddy Arnold
TTITLE24=I Couldn't Keep From Crying - Marty Robbins
EXTD=
EXTT0=
EXTT1=
EXTT2=
EXTT3=
EXTT4=
EXTT5=
EXTT6=
EXTT7=
EXTT8=
EXTT9=
EXTT10=
EXTT11=
EXTT12=
EXTT13=
EXTT14=
EXTT15=
EXTT16=
EXTT17=
EXTT18=
EXTT19=
EXTT20=
EXTT21=
EXTT22=
EXTT23=
EXTT24=
PLAYORDER=
